<?xml version="1.0"?>
<svg xmlns="http://www.w3.org/2000/svg" id="Capa_1" enable-background="new 0 0 510.558 510.558" height="512px" viewBox="0 0 510.558 510.558" width="512px"><g><g><path d="m97.779 225.063h15v-19.051l142.498-111.985 142.501 112.048v18.988h15v-15.008h30v-135h-52.418v-29.487h-15v29.486h-14.923v-59.486h14.923v15h15v-30h-44.923v66.642l-90.282-67.21-95.505 75.055h-91.872v135h30.001zm-15.001-135.008h134.833v-15h-33.686l71.476-56.171 75.454 56.171h-38.244v15h135.167v105h-19.747l-152.752-120.108-152.834 120.108h-19.667z" data-original="#000000" class="active-path" data-old_color="#000000" fill="#494D51"/><path d="m217.778 165.718h15v15h-15z" data-original="#000000" class="active-path" data-old_color="#000000" fill="#494D51"/><path d="m247.778 165.718h15v15h-15z" data-original="#000000" class="active-path" data-old_color="#000000" fill="#494D51"/><path d="m277.778 165.718h15v15h-15z" data-original="#000000" class="active-path" data-old_color="#000000" fill="#494D51"/><path d="m427.778 255.896v-16h-152.743l-19.756 16.692-19.757-16.692h-25.243v15h19.755l25.245 21.33 25.244-21.33h132.255v188.658h-137.743l-19.756 16.693-19.757-16.693h-137.743v-188.658h37.5v-15h-52.5v16h-30v231.667h165.527l24.381 22.995h26.02l24.488-22.495h164.584v-158h-15v143h-155.428l-24.488 22.495h-14.219l-24.38-22.995h-156.485v-201.667h15v187.658h147.255l25.245 21.33 25.244-21.33h147.255v-187.658h15.001v13.834h15v-28.834z" data-original="#000000" class="active-path" data-old_color="#000000" fill="#494D51"/><path d="m442.779 300.063h15v15h-15z" data-original="#000000" class="active-path" data-old_color="#000000" fill="#494D51"/><path d="m247.779 294.063h15v141h-15z" data-original="#000000" class="active-path" data-old_color="#000000" fill="#494D51"/><path d="m150.112 353.873 22.834 44.674 22.833-44.674v-158.818h-45.667zm15.923-1.806h13.821l-6.91 13.52zm14.744-142.012v127.013h-15.667v-127.013z" data-original="#000000" class="active-path" data-old_color="#000000" fill="#494D51"/><path d="m112.274 412.563h121.01v15h-121.01z" data-original="#000000" class="active-path" data-old_color="#000000" fill="#494D51"/><path d="m277.77 300.08h121.01v15h-121.01z" data-original="#000000" class="active-path" data-old_color="#000000" fill="#494D51"/><path d="m352.946 269.931h45.834v15h-45.834z" data-original="#000000" class="active-path" data-old_color="#000000" fill="#494D51"/><path d="m397.779 427.563v-97.333h-120v97.333zm-105-82.334h90v67.333h-90z" data-original="#000000" class="active-path" data-old_color="#000000" fill="#494D51"/><path d="m97.778 105.541h15v15h-15z" data-original="#000000" class="active-path" data-old_color="#000000" fill="#494D51"/><path d="m97.778 135.039h15v28.667h-15z" data-original="#000000" class="active-path" data-old_color="#000000" fill="#494D51"/></g></g> </svg>
