<?xml version="1.0"?>
<svg xmlns="http://www.w3.org/2000/svg" xmlns:xlink="http://www.w3.org/1999/xlink" version="1.1" id="Layer_1" x="0px" y="0px" viewBox="0 0 512 512" style="enable-background:new 0 0 512 512;" xml:space="preserve" width="512px" height="512px" class="hovered-paths"><g><g>
	<path d="M452,182H316c-24.508,0-46.305,11.818-60,30.052C242.305,193.818,220.508,182,196,182H60v30H0v300h512V212h-60V182z    M60,482H30V242h30C60,245.357,60,477.077,60,482z M90,482v-30h106c19.555,0,36.228,12.542,42.42,30H90z M241,437.041   C228.456,427.603,212.871,422,196,422H90V212h106c24.813,0,45,20.187,45,45V437.041z M422,482H273.58   c6.192-17.458,22.865-30,42.42-30h106V482z M422,422H316c-16.871,0-32.456,5.603-45,15.041V257c0-24.813,20.187-45,45-45h106V422z    M482,242v240h-30c0-23.668,0-207.114,0-240H482z" data-original="#000000" class="hovered-path active-path" data-old_color="#000000" fill="#494D51"/>
	<path d="M166,152c36.859,0,66.747-27.122,73.516-61h32.967c6.771,33.886,36.665,61,73.516,61c36.857,0,66.746-27.12,73.516-61H451   V61h-31.484C412.745,27.114,382.851,0,346,0c-36.857,0-66.746,27.12-73.516,61h-32.967C232.745,27.113,202.851,0,166,0   c-36.859,0-66.747,27.122-73.516,61H61v30h31.484C99.255,124.887,129.149,152,166,152z M346,30c24.393,0,45,21.065,45,46   s-20.607,46-45,46s-45-21.065-45-46S321.607,30,346,30z M166,30c24.393,0,45,21.065,45,46s-20.607,46-45,46s-45-21.065-45-46   S141.607,30,166,30z" data-original="#000000" class="hovered-path active-path" data-old_color="#000000" fill="#494D51"/>
	<rect x="120" y="242" width="91" height="30" data-original="#000000" class="hovered-path active-path" data-old_color="#000000" fill="#494D51"/>
	<rect x="120" y="302" width="91" height="30" data-original="#000000" class="hovered-path active-path" data-old_color="#000000" fill="#494D51"/>
	<rect x="120" y="362" width="91" height="30" data-original="#000000" class="hovered-path active-path" data-old_color="#000000" fill="#494D51"/>
	<rect x="301" y="242" width="91" height="30" data-original="#000000" class="hovered-path active-path" data-old_color="#000000" fill="#494D51"/>
	<rect x="301" y="302" width="91" height="30" data-original="#000000" class="hovered-path active-path" data-old_color="#000000" fill="#494D51"/>
	<rect x="301" y="362" width="91" height="30" data-original="#000000" class="hovered-path active-path" data-old_color="#000000" fill="#494D51"/>
</g></g> </svg>
